/vscmnt/brussel_pixiu_data/_data_brussel/112/vsc11236/PredSimResults/SUBJ06opt3D/weighted-expIG/worker_01.mot
version=1
nRows=11
nColumns=50
inDegrees=yes
endheader
                time	         pelvis_tilt	         pelvis_list	     pelvis_rotation	           pelvis_tx	           pelvis_ty	           pelvis_tz	       hip_flexion_r	     hip_adduction_r	      hip_rotation_r	        knee_angle_r	       ankle_angle_r	         mtp_angle_r	       hip_flexion_l	     hip_adduction_l	      hip_rotation_l	        knee_angle_l	       ankle_angle_l	         mtp_angle_l	    lumbar_extension	      lumbar_bending	     lumbar_rotation	 ercspn_r/activation	 intobl_r/activation	 extobl_r/activation	    abd_r/activation	    add_r/activation	hamstrings_r/activation	bifemsh_r/activation	glut_max_r/activation	iliopsoas_r/activation	rect_fem_r/activation	  vasti_r/activation	gastroc_r/activation	 soleus_r/activation	tib_ant_r/activation	 ercspn_l/activation	 intobl_l/activation	 extobl_l/activation	    abd_l/activation	    add_l/activation	hamstrings_l/activation	bifemsh_l/activation	glut_max_l/activation	iliopsoas_l/activation	rect_fem_l/activation	  vasti_l/activation	gastroc_l/activation	 soleus_l/activation	tib_ant_l/activation	
          1.80552450	         -6.18747867	          1.02265753	         -5.08660899	          2.11246367	          0.92846793	          0.01067375	        -10.42201954	         -0.80233907	         -6.36878382	        -10.84455156	          8.58929866	         33.42755773	         32.85516605	         -1.16928463	         -7.89281693	         -8.57591634	          0.38969005	          0.22740312	         -5.69869511	          0.20352510	          8.04259258	          0.13083988	          0.00999999	          0.00999999	          0.08028698	          0.00999999	          0.00999999	          0.24609265	          0.01538339	          0.58851749	          0.01730651	          0.00999999	          0.24643421	          0.37939010	          0.02333568	          0.18677587	          0.16374051	          0.00999999	          0.00999999	          0.31481905	          0.06459806	          0.10887809	          0.01461170	          0.11720993	          0.01018484	          0.00999999	          0.00999999	          0.00999999	          0.52078233	
          1.81756133	         -6.27204006	          0.97127301	         -5.11722813	          2.12946748	          0.92664499	          0.00998651	        -10.85004733	         -0.93142288	         -6.75207791	        -11.74036325	          7.55276359	         35.35663416	         33.05131955	         -1.06180348	         -7.94399592	        -10.39827880	          0.10119849	          0.22498379	         -5.38239435	         -0.13803753	          8.52318804	          0.18533312	          0.00999999	          0.00999999	          0.06687161	          0.00999999	          0.01000000	          0.20497236	          0.01441472	          0.59201938	          0.01441472	          0.00999999	          0.20819224	          0.35516011	          0.01943646	          0.17356158	          0.13638066	          0.00999999	          0.00999999	          0.42526511	          0.06542673	          0.09068535	          0.11261458	          0.09762500	          0.00999999	          0.00999999	          0.01441472	          0.01730651	          0.53023595	
          1.82959816	         -6.33029087	          0.97321022	         -5.13117140	          2.14695640	          0.92502676	          0.00925766	        -11.14464785	         -1.15019400	         -7.13092346	        -12.95630368	          6.39423639	         37.32038379	         33.00876343	         -0.98930128	         -7.79190140	        -12.14628866	         -0.12118520	          0.19564875	         -5.03269773	         -0.54532204	          8.96308294	          0.16601476	          0.00999999	          0.00999999	          0.05569785	          0.00999999	          0.00999999	          0.20806015	          0.01200613	          0.59722987	          0.01200613	          0.00999999	          0.17340483	          0.32669772	          0.01618877	          0.14799210	          0.11359245	          0.00999999	          0.04227781	          0.35420641	          0.07088154	          0.07553249	          0.10775630	          0.08131258	          0.00999999	          0.00999999	          0.01200613	          0.01441472	          0.57535494	
          1.84163499	         -6.36605249	          0.99989466	         -5.11369132	          2.16467875	          0.92368902	          0.00839133	        -11.21705264	         -1.43871870	         -7.51885986	        -14.61670032	          5.08662196	         39.31069642	         32.81484292	         -0.90596934	         -7.76354740	        -13.67936459	         -0.43728575	          0.18416693	         -4.68221715	         -0.97398533	          9.34781081	          0.17478165	          0.00999999	          0.00999999	          0.04639114	          0.00999999	          0.00999999	          0.19627839	          0.00999999	          0.52869220	          0.00999999	          0.00999999	          0.14443015	          0.28504957	          0.01348374	          0.16154042	          0.09461197	          0.00999999	          0.08696314	          0.32752884	          0.07264401	          0.06291156	          0.12949011	          0.06772584	          0.00999999	          0.04414727	          0.00999999	          0.01200613	          0.62726284	
          1.85367182	         -6.38109740	          1.04798327	         -5.06621785	          2.18242291	          0.92273971	          0.00739977	        -11.00737540	         -1.80080269	         -7.92108036	        -16.78788297	          3.58346222	         41.27506423	         32.54081602	         -0.80591284	         -7.85325389	        -15.09527012	         -0.74932113	          0.14938912	         -4.35283507	         -1.42144829	          9.67123439	          0.21313075	          0.00999999	          0.00999999	          0.03863952	          0.00999999	          0.00999999	          0.17095874	          0.00999999	          0.44035158	          0.00999999	          0.00999999	          0.12029692	          0.23741986	          0.01123071	          0.15732525	          0.07880300	          0.00999999	          0.13618826	          0.29683328	          0.07208209	          0.05239950	          0.16637918	          0.05640934	          0.00999999	          0.10866737	          0.00999999	          0.00999999	          0.67265080	
          1.86570865	         -6.37856274	          1.12939920	         -4.99511355	          2.19999251	          0.92235078	          0.00629663	        -10.47517282	         -2.25626917	         -8.33482406	        -19.49059061	          1.84258410	         43.04784717	         32.21911823	         -0.66561301	         -7.97684191	        -16.50202229	         -0.64007700	          0.11490876	         -4.05819252	         -1.89852112	          9.93468260	          0.24918120	          0.00999999	          0.00999999	          0.03218314	          0.01431668	          0.07288079	          0.15367368	          0.00999999	          0.36677203	          0.00999999	          0.00999999	          0.10019618	          0.19774873	          0.00999999	          0.14857483	          0.06563559	          0.00999999	          0.18838231	          0.25311507	          0.07487191	          0.04364392	          0.14227564	          0.04698375	          0.00999999	          0.19748763	          0.00999999	          0.00999999	          0.63935947	
          1.87774548	         -6.36388678	          1.24287488	         -4.90995829	          2.21720570	          0.92270341	          0.00510333	         -9.58984126	         -2.81002090	         -8.75708078	        -22.72479437	         -0.11830228	         44.27465868	         31.81875502	         -0.46202465	         -8.02836798	        -17.84739305	          0.08753279	          0.17700526	         -3.80900667	         -2.39966447	         10.14651720	          0.27394652	          0.00999999	          0.00999999	          0.02680557	          0.13762619	          0.10972270	          0.13435464	          0.00999999	          0.30548710	          0.00999999	          0.00999999	          0.08345413	          0.16470636	          0.00999999	          0.13515602	          0.05466836	          0.00999999	          0.22174925	          0.23263260	          0.07133523	          0.03635134	          0.13570070	          0.03913311	          0.00999999	          0.27962648	          0.00999999	          0.00999999	          0.54641286	
          1.88978231	         -6.34283169	          1.36088113	         -4.80877435	          2.23393621	          0.92394203	          0.00385526	         -8.33963238	         -3.43802793	         -9.20237589	        -26.48620915	         -2.17304750	         44.39546634	         31.25449087	         -0.20829038	         -8.00024412	        -18.91749715	          1.19163772	          0.43589008	         -3.61369708	         -2.89308386	         10.30554151	          0.27407692	          0.00999999	          0.00999999	          0.02232655	          0.20996194	          0.12299961	          0.11190496	          0.00999999	          0.25444243	          0.00999999	          0.00999999	          0.06950955	          0.13718512	          0.00999999	          0.12744234	          0.04553368	          0.00999999	          0.23450788	          0.21290325	          0.07268963	          0.03027730	          0.11302610	          0.03259425	          0.00999999	          0.30711321	          0.00999999	          0.00999999	          0.45511125	
          1.90181914	         -6.31932215	          1.45053828	         -4.68791185	          2.25014144	          0.92605411	          0.00259427	         -6.75686613	         -4.10638190	         -9.66018981	        -30.64255843	         -4.46959419	         43.43793261	         30.47732745	          0.05953986	         -7.92872921	        -19.54982476	          2.27674438	          0.85257174	         -3.47501985	         -3.34413458	         10.40766804	          0.27105529	          0.00999999	          0.00999999	          0.01859595	          0.24872591	          0.15124866	          0.11638900	          0.00999999	          0.21192695	          0.00999999	          0.00999999	          0.05789501	          0.11426249	          0.00999999	          0.11644780	          0.03792533	          0.00999999	          0.22949236	          0.19759651	          0.07622087	          0.02521818	          0.09414026	          0.02714799	          0.00999999	          0.30412288	          0.00999999	          0.00999999	          0.37906547	
          1.91385597	         -6.29420837	          1.48390917	         -4.54549777	          2.26582032	          0.92887940	          0.00134718	         -4.90429569	         -4.78118847	        -10.11136876	        -35.03848331	         -6.92829143	         41.22542745	         29.50568424	          0.30439773	         -7.82288361	        -19.74623428	          3.14953790	          1.32309752	         -3.39467735	         -3.72223742	         10.45102069	          0.26759696	          0.01702892	          0.00999999	          0.01548870	          0.23902368	          0.12931426	          0.09694125	          0.00999999	          0.17651550	          0.00999999	          0.00999999	          0.04822118	          0.09517006	          0.07387830	          0.09699022	          0.03158828	          0.00999999	          0.21899158	          0.18058956	          0.07958986	          0.02100441	          0.07841011	          0.02261176	          0.00999999	          0.27430708	          0.00999999	          0.00999999	          0.33220563	
          1.92589280	         -6.26633960	          1.45479570	         -4.38674663	          2.28097333	          0.93215615	          0.00013521	         -2.86725207	         -5.43799582	        -10.50621129	        -39.55975722	         -9.05183263	         37.34095286	         28.40722288	          0.50406621	         -7.68789828	        -19.63684942	          3.84050957	          1.78967684	         -3.37490341	         -4.01854325	         10.43931320	          0.27421272	          0.04172578	          0.00999999	          0.01290065	          0.19908456	          0.10770679	          0.10640877	          0.00999999	          0.14702104	          0.00999999	          0.00999999	          0.04016377	          0.07926783	          0.22769567	          0.08078386	          0.02631011	          0.00999999	          0.20233693	          0.16119103	          0.08444993	          0.01749472	          0.07553557	          0.01883350	          0.00999999	          0.24793231	          0.00999999	          0.00999999	          0.30300582	
